<svg xmlns="http://www.w3.org/2000/svg" viewBox="0 0 64 64" width="64" height="64" role="img" aria-label="scionwood">
  <title>scionwood</title>
  <defs>
    <clipPath id="below"><polygon points="0,62.8 64,20.2 64,64 0,64"/></clipPath>
    <clipPath id="above"><polygon points="0,59.8 64,17.2 64,0 0,0"/></clipPath>
  </defs>
  <g clip-path="url(#below)" fill="#57665A">
    <path d="M26 57V20" fill="none" stroke="#57665A" stroke-width="6" stroke-linecap="round"/>
    <path d="M26 36L44 24" fill="none" stroke="#57665A" stroke-width="6" stroke-linecap="round"/>
    <circle cx="26" cy="57" r="6"/>
  </g>
  <g clip-path="url(#above)" fill="#7CC64F">
    <path d="M26 57V20" fill="none" stroke="#7CC64F" stroke-width="6" stroke-linecap="round"/>
    <path d="M26 36L44 24" fill="none" stroke="#7CC64F" stroke-width="6" stroke-linecap="round"/>
    <circle cx="26" cy="57" r="6"/>
    <path d="M26 20C23.7 10.6 17.7 5.4 9 5C10.5 13.6 16.4 18.9 26 20Z"/>
    <path d="M44 24C44.9 15.8 49.4 11.6 57 12C56.8 19.6 52.3 23.8 44 24Z"/>
  </g>
  <g clip-path="url(#above)" fill="none" stroke="#FFFFFF" stroke-opacity="0.42"
     stroke-width="1.5" stroke-linecap="round">
    <path d="M25 19.4C21 15 15.5 10 10.2 6.6"/>
    <path d="M44.8 23.4C48.5 19.5 52.5 15.5 56.3 12.6"/>
  </g>
</svg>
